<?xml version="1.0" standalone="no"?>
<!DOCTYPE svg PUBLIC "-//W3C//DTD SVG 20010904//EN"
 "http://www.w3.org/TR/2001/REC-SVG-20010904/DTD/svg10.dtd">
<svg version="1.0" xmlns="http://www.w3.org/2000/svg"
 width="490.000000pt" height="657.000000pt" viewBox="0 0 490.000000 657.000000"
 preserveAspectRatio="xMidYMid meet">

<g transform="translate(0.000000,657.000000) scale(0.100000,-0.100000)"
fill="#000000" stroke="none">
<path d="M10 5019 l0 -1540 23 18 c13 10 145 130 295 267 l272 250 0 898 c0
494 4 898 8 898 5 0 301 -72 658 -160 357 -88 701 -173 766 -189 l116 -28 351
321 c192 176 349 322 347 323 -2 2 -102 -21 -223 -51 l-220 -54 -1184 294
c-651 162 -1189 294 -1196 294 -11 0 -13 -296 -13 -1541z"/>
<path d="M4498 3683 l-288 -265 0 -209 c0 -115 -2 -209 -5 -209 -3 0 -49 38
-103 85 -53 46 -107 89 -119 96 -22 12 -60 -21 -525 -450 -17 -15 -4 -29 199
-206 474 -416 509 -469 438 -673 l-28 -81 -207 202 c-113 111 -297 284 -407
385 l-202 183 -250 -230 -249 -229 176 -165 c98 -91 308 -276 467 -412 160
-136 297 -253 305 -261 12 -12 5 -23 -55 -84 -38 -39 -74 -70 -80 -70 -6 0
-92 69 -191 153 -98 84 -318 271 -488 415 l-309 262 -26 -23 c-490 -446 -483
-438 -464 -460 38 -42 458 -403 637 -548 l189 -152 -44 -13 c-82 -25 -243 -54
-356 -64 -280 -26 -637 52 -945 206 -48 24 -90 44 -92 44 -10 0 -431 -392
-431 -401 0 -17 179 -126 320 -194 208 -101 431 -172 680 -216 170 -30 448
-37 615 -15 567 75 1062 315 1450 705 369 370 605 874 670 1426 9 70 12 343
10 915 -1 448 -2 815 -3 816 -1 1 -131 -118 -289 -263z"/>
</g>
</svg>
